<?xml version="1.0" encoding="iso-8859-1"?>
<!-- Generator: Adobe Illustrator 19.0.0, SVG Export Plug-In . SVG Version: 6.00 Build 0)  -->
<svg xmlns="http://www.w3.org/2000/svg" xmlns:xlink="http://www.w3.org/1999/xlink" version="1.1" id="Layer_1" x="0px" y="0px" viewBox="0 0 446.856 446.856" style="enable-background:new 0 0 446.856 446.856;" xml:space="preserve" width="512px" height="512px">
<g id="XMLID_140_">
	<g>
		<g>
			<path d="M326.39,233.237v-30.34c0-48.263-33.197-88.766-78-99.938V72.124c0-13.807-11.193-25-25-25s-25,11.193-25,25v30.835     c-44.803,11.172-78,51.675-78,99.938v30.34c0,32.437-12.886,63.546-35.822,86.483c-10.082,10.082-13.098,25.244-7.642,38.417     c5.456,13.172,18.31,21.761,32.568,21.761h62.148c0,28.579,23.168,51.747,51.747,51.747c28.579,0,51.747-23.168,51.747-51.747     h62.148c14.258,0,27.112-8.589,32.568-21.761c5.456-13.173,2.44-28.335-7.642-38.417     C339.275,296.783,326.39,265.674,326.39,233.237z" fill="#FFDA44"/>
			<path d="M86.146,233.065c7.842-2.671,12.034-11.193,9.362-19.035c-8.021-23.55-6.392-48.815,4.589-71.14     c10.98-22.325,29.998-39.037,53.548-47.058c7.842-2.671,12.034-11.193,9.362-19.036c-2.671-7.842-11.193-12.034-19.035-9.362     c-31.136,10.605-56.278,32.7-70.795,62.215c-14.517,29.516-16.672,62.918-6.066,94.053     C69.782,231.546,78.306,235.736,86.146,233.065z" fill="#FFDA44"/>
			<path d="M130.078,44.416c7.842-2.671,12.034-11.193,9.363-19.035c-2.671-7.842-11.194-12.033-19.036-9.362     C27.665,47.606-22.086,148.755,9.503,241.496c2.671,7.843,11.195,12.033,19.035,9.362c7.842-2.671,12.034-11.193,9.362-19.035     c-12.718-37.34-10.134-77.397,7.276-112.794C62.586,83.633,92.738,57.134,130.078,44.416z" fill="#FFDA44"/>
			<path d="M302.806,67.434c-7.844-2.673-16.364,1.521-19.035,9.362c-2.671,7.842,1.521,16.364,9.362,19.036     c48.616,16.559,74.696,69.582,58.137,118.198c-2.671,7.842,1.52,16.364,9.362,19.035c7.836,2.671,16.363-1.517,19.035-9.362     C401.561,159.428,367.081,89.326,302.806,67.434z" fill="#FFDA44"/>
			<path d="M428.523,105.788c-20.947-42.587-57.225-74.468-102.149-89.77c-7.844-2.674-16.364,1.521-19.035,9.362     c-2.671,7.842,1.521,16.364,9.362,19.035c37.34,12.719,67.492,39.217,84.902,74.613c17.41,35.397,19.994,75.454,7.275,112.794     c-2.671,7.842,1.521,16.364,9.362,19.035c7.836,2.671,16.363-1.517,19.035-9.362C452.578,196.57,449.47,148.375,428.523,105.788z     " fill="#FFDA44"/>
		</g>
	</g>
</g>
<g>
</g>
<g>
</g>
<g>
</g>
<g>
</g>
<g>
</g>
<g>
</g>
<g>
</g>
<g>
</g>
<g>
</g>
<g>
</g>
<g>
</g>
<g>
</g>
<g>
</g>
<g>
</g>
<g>
</g>
</svg>
