<?xml version="1.0" encoding="iso-8859-1"?>
<!--
SPDX-FileCopyrightText: 2019 Ritta Balogh <ritta.balogh@vipcomag.de>
SPDX-FileCopyrightText: Shmashicons https://www.flatiocon.com/authors/smashicons from https://www.flaticon.com

SPDX-License-Identifier: CC-BY-3.0
-->
<!-- Generator: Adobe Illustrator 18.0.0, SVG Export Plug-In . SVG Version: 6.00 Build 0)  -->
<!DOCTYPE svg PUBLIC "-//W3C//DTD SVG 1.1//EN" "http://www.w3.org/Graphics/SVG/1.1/DTD/svg11.dtd">
<svg xmlns="http://www.w3.org/2000/svg" xmlns:xlink="http://www.w3.org/1999/xlink" version="1.1" id="Capa_1" x="0px" y="0px" viewBox="0 0 53.942 53.942" style="enable-background:new 0 0 53.942 53.942;" xml:space="preserve" width="512px" height="512px">
<g>
	<path d="M53.364,40.908c-2.008-3.796-8.981-7.912-9.288-8.092c-0.896-0.51-1.831-0.78-2.706-0.78c-1.301,0-2.366,0.596-3.011,1.68   c-1.02,1.22-2.285,2.646-2.592,2.867c-2.376,1.612-4.236,1.429-6.294-0.629L17.987,24.467c-2.045-2.045-2.233-3.928-0.632-6.291   c0.224-0.309,1.65-1.575,2.87-2.596c0.778-0.463,1.312-1.151,1.546-1.995c0.311-1.123,0.082-2.444-0.652-3.731   c-0.173-0.296-4.291-7.27-8.085-9.277c-0.708-0.375-1.506-0.573-2.306-0.573c-1.318,0-2.558,0.514-3.49,1.445L4.7,3.986   c-4.014,4.013-5.467,8.562-4.321,13.52c0.956,4.132,3.742,8.529,8.282,13.068l14.705,14.705c5.746,5.746,11.224,8.66,16.282,8.66   c0,0,0,0,0.001,0c3.72,0,7.188-1.581,10.305-4.698l2.537-2.537C54.033,45.163,54.383,42.833,53.364,40.908z" fill="#48A0DC0"/>
	<path d="M30,25.003c0.256,0,0.512-0.098,0.707-0.293L46,9.417v9.586c0,0.553,0.448,1,1,1s1-0.447,1-1v-12   c0-0.13-0.027-0.26-0.077-0.382c-0.101-0.245-0.296-0.44-0.541-0.541c-0.133-0.055-0.273-0.075-0.415-0.071   c-0.011,0-0.02-0.006-0.032-0.006h-12c-0.552,0-1,0.447-1,1s0.448,1,1,1h9.65L29.293,23.296c-0.391,0.391-0.391,1.023,0,1.414   C29.488,24.906,29.744,25.003,30,25.003z" fill="#48A0DC0"/>
</g>
<g>
</g>
<g>
</g>
<g>
</g>
<g>
</g>
<g>
</g>
<g>
</g>
<g>
</g>
<g>
</g>
<g>
</g>
<g>
</g>
<g>
</g>
<g>
</g>
<g>
</g>
<g>
</g>
<g>
</g>
</svg>
