<?xml version="1.0" encoding="iso-8859-1"?>
<!--
SPDX-FileCopyrightText: 2019 Ritta Balogh <ritta.balogh@vipcomag.de>
SPDX-FileCopyrightText: Freepik http://www.Freepik from https://www.flaticon.com

SPDX-License-Identifier: CC-BY-3.0
-->
<!-- Generator: Adobe Illustrator 16.0.0, SVG Export Plug-In . SVG Version: 6.00 Build 0)  -->
<!DOCTYPE svg PUBLIC "-//W3C//DTD SVG 1.1//EN" "http://www.w3.org/Graphics/SVG/1.1/DTD/svg11.dtd">
<svg version="1.1" id="Capa_1" xmlns="http://www.w3.org/2000/svg" xmlns:xlink="http://www.w3.org/1999/xlink" x="0px" y="0px"
	 width="41.309px" height="41.309px" viewBox="0 0 41.309 41.309" style="enable-background:new 0 0 41.309 41.309;"
	 xml:space="preserve">
<g>
	<path style="fill:#48A0DC;" d="M33.934,8.684c-4.062-0.409-7.679,2.722-8.854,7.221l-15.047-0.643c-0.396-2.837-2.396-4.875-4.975-4.875
		C1.971,10.386,0,14.923,0,18.047c0,2.33,1.016,4.417,2.634,5.508L1.416,32.66l8.354-1.911l-1.61-8.293
		c0.511-0.518,0.9-1.229,1.199-2.009l15.521,0.661c0.742,4.02,3.554,7.137,7.177,7.479c0.221,0.022,0.44,0.032,0.66,0.032
		c4.37,0,8.042-3.957,8.538-9.207C41.773,13.923,38.488,9.111,33.934,8.684z M5.059,12.147c1.604,0,2.823,1.229,3.183,3.038
		l-5.848-0.249C3.038,13.349,4.077,12.147,5.059,12.147z M7.721,29.414L3.495,30.38l1.045-7.8L3.971,22.3
		c-0.797-0.391-1.403-1.188-1.787-2.157l5.282,0.226C7.233,20.837,6.973,21.21,6.7,21.4l-0.474,0.326L7.721,29.414z M37.755,19.083
		c-0.335,3.522-2.745,6.254-5.366,6.003c-2.623-0.249-4.486-3.344-4.152-6.897c0.32-3.373,2.533-6.019,5.037-6.019
		c0.11,0,0.224,0.005,0.33,0.017C36.229,12.433,38.089,15.527,37.755,19.083z"/>
</g>
<g>
</g>
<g>
</g>
<g>
</g>
<g>
</g>
<g>
</g>
<g>
</g>
<g>
</g>
<g>
</g>
<g>
</g>
<g>
</g>
<g>
</g>
<g>
</g>
<g>
</g>
<g>
</g>
<g>
</g>
</svg>
