<?xml version="1.0" encoding="iso-8859-1"?>
<!-- Generator: Adobe Illustrator 19.0.0, SVG Export Plug-In . SVG Version: 6.00 Build 0)  -->
<svg xmlns="http://www.w3.org/2000/svg" xmlns:xlink="http://www.w3.org/1999/xlink" version="1.1" id="Capa_1" x="0px" y="0px" viewBox="0 0 490 490" style="enable-background:new 0 0 490 490;" xml:space="preserve" width="512px" height="512px">
<g>
	<g>
		<g>
			<path d="M0.15,73.1v343.8c0,40.3,32.6,73,72.9,73.1l0,0c40.4,0.1,73.3-32.6,73.3-73.1V73.1c0-40.4-32.7-73.1-73.1-73.1l0,0     C32.95,0,0.15,32.8,0.15,73.1z" fill="#006DF0"/>
			<path d="M168.85,50.4c2.3,8.6,3.1,17.1,3.1,25.7v338.5c0,8.2-1.2,16.3-3.1,24.5h321V50.4H168.85z M258.25,397.1h-28.8     c-7,0-12.8-5.8-12.8-12.8s5.8-12.8,12.8-12.8h28.8c7,0,12.8,5.8,12.8,12.8C271.05,391.6,265.25,397.1,258.25,397.1z      M258.25,338.8h-28.8c-7,0-12.8-5.8-12.8-12.8s5.8-12.8,12.8-12.8h28.8c7,0,12.8,5.8,12.8,12.8     C271.05,332.9,265.25,338.8,258.25,338.8z M258.25,280.1h-28.8c-7,0-12.8-5.8-12.8-12.8s5.8-12.8,12.8-12.8h28.8     c7,0,12.8,5.8,12.8,12.8C271.05,274.2,265.25,280.1,258.25,280.1z M343.75,397.1h-28.7c-7,0-12.8-5.8-12.8-12.8     s5.8-12.8,12.8-12.8h28.8c7,0,12.8,5.8,12.8,12.8C356.55,391.6,350.75,397.1,343.75,397.1z M343.75,338.8h-28.7     c-7,0-12.8-5.8-12.8-12.8s5.8-12.9,12.8-12.9h28.8c7,0,12.8,5.8,12.8,12.8C356.55,332.9,350.75,338.8,343.75,338.8z      M343.75,280.1h-28.7c-7,0-12.8-5.8-12.8-12.8s5.8-12.8,12.8-12.8h28.8c7,0,12.8,5.8,12.8,12.8     C356.55,274.2,350.75,280.1,343.75,280.1z M429.25,397.1h-28.8c-7,0-12.8-5.8-12.8-12.8s5.8-12.8,12.8-12.8h28.8     c7,0,12.8,5.8,12.8,12.8C442.15,391.6,436.25,397.1,429.25,397.1z M429.25,338.8h-28.8c-7,0-12.8-5.8-12.8-12.8     s5.8-12.8,12.8-12.8h28.8c7,0,12.8,5.8,12.8,12.8C442.15,332.9,436.25,338.8,429.25,338.8z M429.25,280.1h-28.8     c-7,0-12.8-5.8-12.8-12.8s5.8-12.8,12.8-12.8h28.8c7,0,12.8,5.8,12.8,12.8C442.15,274.2,436.25,280.1,429.25,280.1z      M453.75,213.2h-248.7V104.8h248.7V213.2z" fill="#006DF0"/>
		</g>
	</g>
</g>
<g>
</g>
<g>
</g>
<g>
</g>
<g>
</g>
<g>
</g>
<g>
</g>
<g>
</g>
<g>
</g>
<g>
</g>
<g>
</g>
<g>
</g>
<g>
</g>
<g>
</g>
<g>
</g>
<g>
</g>
</svg>
